<svg xmlns="http://www.w3.org/2000/svg" xmlns:xlink="http://www.w3.org/1999/xlink" width="500" zoomAndPan="magnify" viewBox="0 0 375 374.999991" height="500" preserveAspectRatio="xMidYMid meet" version="1.0"><defs><g/><clipPath id="f7175170c2"><path d="M 112 132 L 209.699219 132 L 209.699219 273.425781 L 112 273.425781 Z M 112 132 " clip-rule="nonzero"/></clipPath><clipPath id="1aa3a10bf6"><path d="M 52.199219 101.675781 L 150 101.675781 L 150 243 L 52.199219 243 Z M 52.199219 101.675781 " clip-rule="nonzero"/></clipPath></defs><g clip-path="url(#f7175170c2)"><path fill="#403542" d="M 209.816406 272.652344 C 205.28125 265.425781 200.742188 258.199219 196.199219 250.972656 L 189.378906 240.15625 L 182.535156 229.339844 L 168.828125 207.71875 L 155.96875 187.464844 L 172.527344 163.148438 L 176.886719 156.757812 C 178.34375 154.628906 179.792969 152.496094 181.261719 150.375 L 190.066406 137.648438 L 193.628906 132.503906 L 146.664062 132.191406 L 145.671875 133.957031 C 144.226562 136.550781 142.8125 139.15625 141.382812 141.757812 L 140.316406 143.710938 L 139.261719 145.675781 L 137.144531 149.589844 L 132.957031 157.449219 L 130.824219 161.5 C 130.011719 160.265625 129.195312 159.03125 128.382812 157.800781 L 125.882812 154.066406 L 123.363281 150.34375 L 120.839844 146.628906 L 118.285156 142.933594 C 116.570312 140.46875 114.835938 138.019531 113.070312 135.589844 C 113.019531 135.503906 112.945312 135.449219 112.847656 135.421875 C 112.75 135.398438 112.660156 135.410156 112.570312 135.460938 C 112.484375 135.511719 112.429688 135.585938 112.402344 135.683594 C 112.378906 135.78125 112.390625 135.875 112.441406 135.960938 C 113.71875 138.671875 115.035156 141.367188 116.386719 144.046875 L 118.40625 148.0625 L 120.457031 152.0625 L 122.519531 156.054688 L 124.605469 160.03125 C 126.007812 162.675781 127.40625 165.324219 128.828125 167.960938 L 130.878906 171.761719 L 133.324219 167.929688 C 134.917969 165.421875 136.476562 162.90625 138.050781 160.390625 L 142.734375 152.824219 L 145.058594 149.027344 L 146.21875 147.132812 L 147.367188 145.242188 C 148.53125 143.316406 149.699219 141.394531 150.851562 139.464844 C 151.773438 139.464844 179.851562 139.359375 180.96875 139.335938 L 176.140625 147 C 174.769531 149.183594 173.375 151.347656 171.988281 153.527344 L 167.824219 160.046875 L 151.136719 186.109375 L 150.265625 187.464844 L 151.136719 188.726562 L 165.605469 209.84375 L 180.105469 230.941406 L 187.351562 241.484375 L 194.628906 252.015625 C 199.472656 259.046875 204.335938 266.0625 209.214844 273.0625 C 209.273438 273.140625 209.347656 273.191406 209.445312 273.210938 C 209.539062 273.230469 209.628906 273.210938 209.710938 273.15625 C 209.792969 273.101562 209.84375 273.027344 209.863281 272.933594 C 209.886719 272.835938 209.867188 272.746094 209.816406 272.664062 Z M 209.816406 272.652344 " fill-opacity="1" fill-rule="nonzero"/></g><g clip-path="url(#1aa3a10bf6)"><path fill="#403542" d="M 145.746094 230.792969 L 143.726562 226.773438 L 141.679688 222.773438 L 139.613281 218.785156 L 137.527344 214.808594 C 136.125 212.160156 134.730469 209.511719 133.304688 206.878906 L 131.253906 203.074219 L 128.808594 206.910156 C 127.214844 209.414062 125.65625 211.933594 124.082031 214.449219 L 119.394531 222.015625 L 117.074219 225.8125 L 115.910156 227.707031 L 114.765625 229.597656 C 113.601562 231.523438 112.445312 233.449219 111.296875 235.375 C 110.375 235.375 82.296875 235.484375 81.179688 235.507812 L 85.992188 227.84375 C 87.367188 225.660156 88.761719 223.492188 90.144531 221.316406 L 94.3125 214.792969 L 111 188.730469 L 111.867188 187.375 L 111 186.113281 L 96.53125 165.039062 L 82.03125 143.984375 L 74.78125 133.464844 L 67.5 122.953125 C 62.660156 115.945312 57.796875 108.945312 52.917969 101.960938 C 52.863281 101.882812 52.789062 101.832031 52.695312 101.8125 C 52.601562 101.792969 52.511719 101.808594 52.429688 101.859375 C 52.347656 101.914062 52.296875 101.988281 52.273438 102.085938 C 52.25 102.179688 52.265625 102.273438 52.316406 102.355469 C 56.855469 109.570312 61.394531 116.785156 65.933594 123.992188 L 72.753906 134.800781 L 79.597656 145.59375 L 93.300781 167.171875 L 106.164062 187.378906 L 89.617188 211.691406 L 85.257812 218.085938 C 83.796875 220.210938 82.355469 222.347656 80.882812 224.46875 L 72.074219 237.191406 L 68.515625 242.335938 L 115.484375 242.652344 L 116.476562 240.867188 C 117.921875 238.277344 119.339844 235.671875 120.765625 233.070312 L 121.832031 231.117188 L 122.894531 229.160156 L 125.011719 225.242188 L 129.175781 217.394531 L 131.308594 213.34375 L 133.753906 217.039062 L 136.25 220.773438 L 138.769531 224.5 L 141.292969 228.210938 L 143.847656 231.910156 C 145.558594 234.371094 147.296875 236.820312 149.0625 239.25 C 149.117188 239.324219 149.1875 239.367188 149.28125 239.386719 C 149.371094 239.40625 149.457031 239.390625 149.535156 239.34375 C 149.613281 239.296875 149.667969 239.230469 149.695312 239.140625 C 149.722656 239.050781 149.714844 238.964844 149.675781 238.882812 C 148.40625 236.179688 147.097656 233.480469 145.746094 230.792969 Z M 145.746094 230.792969 " fill-opacity="1" fill-rule="nonzero"/></g><g fill="#403542" fill-opacity="1"><g transform="translate(197.414127, 190.261248)"><g><path d="M 12.078125 0.3125 C 10.023438 0.3125 8.210938 -0.125 6.640625 -1 C 5.066406 -1.875 3.847656 -3.117188 2.984375 -4.734375 C 2.117188 -6.347656 1.6875 -8.207031 1.6875 -10.3125 L 1.6875 -17.6875 C 1.6875 -19.789062 2.117188 -21.648438 2.984375 -23.265625 C 3.847656 -24.878906 5.070312 -26.125 6.65625 -27 C 8.25 -27.875 10.082031 -28.3125 12.15625 -28.3125 L 16.640625 -28.3125 C 18.640625 -28.3125 20.398438 -27.910156 21.921875 -27.109375 C 23.441406 -26.316406 24.617188 -25.1875 25.453125 -23.71875 C 26.296875 -22.25 26.71875 -20.554688 26.71875 -18.640625 L 21.28125 -18.640625 C 21.28125 -20.078125 20.851562 -21.234375 20 -22.109375 C 19.144531 -22.992188 18.023438 -23.4375 16.640625 -23.4375 L 12.15625 -23.4375 C 10.664062 -23.4375 9.46875 -22.882812 8.5625 -21.78125 C 7.65625 -20.675781 7.203125 -19.226562 7.203125 -17.4375 L 7.203125 -10.5625 C 7.203125 -8.769531 7.644531 -7.320312 8.53125 -6.21875 C 9.425781 -5.113281 10.609375 -4.5625 12.078125 -4.5625 L 16.796875 -4.5625 C 18.160156 -4.5625 19.285156 -5.050781 20.171875 -6.03125 C 21.066406 -7.019531 21.515625 -8.25 21.515625 -9.71875 L 21.515625 -10.59375 L 13.765625 -10.59375 L 13.765625 -15.40625 L 26.953125 -15.40625 L 26.953125 -9.71875 C 26.953125 -7.769531 26.523438 -6.035156 25.671875 -4.515625 C 24.828125 -2.992188 23.628906 -1.804688 22.078125 -0.953125 C 20.535156 -0.109375 18.773438 0.3125 16.796875 0.3125 Z M 12.078125 0.3125 "/></g></g></g><g fill="#403542" fill-opacity="1"><g transform="translate(225.891294, 190.261248)"><g><path d="M 18.875 -6.515625 L 8.40625 -6.515625 L 5.921875 0 L 0.15625 0 L 11.125 -28 L 13.59375 -28 C 15.332031 -28 16.507812 -27.195312 17.125 -25.59375 L 27.078125 0 L 21.3125 0 Z M 9.875 -11.15625 L 17.40625 -11.15625 L 13.6875 -21.234375 L 13.640625 -21.234375 Z M 9.875 -11.15625 "/></g></g></g><g fill="#403542" fill-opacity="1"><g transform="translate(253.128586, 190.261248)"><g><path d="M 2.484375 -28 L 7.40625 -28 L 16.5625 -11.359375 L 25.515625 -28 L 30.4375 -28 L 30.4375 0 L 25.046875 0 L 25.046875 -17.71875 L 19.15625 -7.078125 C 18.757812 -6.359375 18.351562 -5.84375 17.9375 -5.53125 C 17.519531 -5.226562 17.046875 -5.078125 16.515625 -5.078125 L 15 -5.078125 L 7.875 -17.71875 L 7.875 0 L 2.484375 0 Z M 2.484375 -28 "/></g></g></g><g fill="#403542" fill-opacity="1"><g transform="translate(286.045316, 190.261248)"><g><path d="M 6.359375 0 C 5.210938 0 4.28125 -0.34375 3.5625 -1.03125 C 2.84375 -1.726562 2.484375 -2.640625 2.484375 -3.765625 L 2.484375 -28 L 23.84375 -28 L 23.84375 -23.203125 L 8 -23.203125 L 8 -16.71875 L 22.640625 -16.71875 L 22.640625 -11.921875 L 8 -11.921875 L 8 -4.796875 L 23.84375 -4.796875 L 23.84375 0 Z M 6.359375 0 "/></g></g></g><g fill="#403542" fill-opacity="1"><g transform="translate(226.101509, 217.53876)"><g><path d="M 1.84375 -16.09375 L 3.546875 -16.09375 L 3.546875 -8.875 L 12.421875 -8.875 L 12.421875 -16.09375 L 14.125 -16.09375 L 14.125 0 L 12.421875 0 L 12.421875 -7.359375 L 3.546875 -7.359375 L 3.546875 0 L 1.84375 0 Z M 1.84375 -16.09375 "/></g></g></g><g fill="#403542" fill-opacity="1"><g transform="translate(247.003217, 217.53876)"><g><path d="M 6.71875 0.1875 C 5.738281 0.1875 4.867188 -0.03125 4.109375 -0.46875 C 3.359375 -0.90625 2.773438 -1.523438 2.359375 -2.328125 C 1.953125 -3.140625 1.75 -4.066406 1.75 -5.109375 L 1.75 -16.09375 L 3.453125 -16.09375 L 3.453125 -5.0625 C 3.453125 -3.9375 3.75 -3.03125 4.34375 -2.34375 C 4.945312 -1.664062 5.738281 -1.328125 6.71875 -1.328125 L 9.203125 -1.328125 C 10.179688 -1.328125 10.96875 -1.664062 11.5625 -2.34375 C 12.164062 -3.03125 12.46875 -3.9375 12.46875 -5.0625 L 12.46875 -16.09375 L 14.171875 -16.09375 L 14.171875 -5.109375 C 14.171875 -4.066406 13.960938 -3.140625 13.546875 -2.328125 C 13.128906 -1.523438 12.546875 -0.90625 11.796875 -0.46875 C 11.046875 -0.03125 10.179688 0.1875 9.203125 0.1875 Z M 6.71875 0.1875 "/></g></g></g><g fill="#403542" fill-opacity="1"><g transform="translate(267.858943, 217.53876)"><g><path d="M 3.328125 0 C 2.890625 0 2.53125 -0.132812 2.25 -0.40625 C 1.976562 -0.6875 1.84375 -1.050781 1.84375 -1.5 L 1.84375 -16.09375 L 8.640625 -16.09375 C 10.003906 -16.09375 11.101562 -15.765625 11.9375 -15.109375 C 12.78125 -14.460938 13.203125 -13.601562 13.203125 -12.53125 L 13.203125 -11.3125 C 13.203125 -10.75 13.070312 -10.207031 12.8125 -9.6875 C 12.550781 -9.175781 12.191406 -8.769531 11.734375 -8.46875 L 11.734375 -8.4375 C 12.484375 -8.238281 13.082031 -7.851562 13.53125 -7.28125 C 13.988281 -6.707031 14.21875 -6.035156 14.21875 -5.265625 L 14.21875 -4.15625 C 14.21875 -2.90625 13.816406 -1.898438 13.015625 -1.140625 C 12.222656 -0.378906 11.144531 0 9.78125 0 Z M 9.109375 -8.828125 C 9.828125 -8.828125 10.40625 -9.050781 10.84375 -9.5 C 11.28125 -9.957031 11.5 -10.5625 11.5 -11.3125 L 11.5 -12.53125 C 11.5 -13.144531 11.234375 -13.640625 10.703125 -14.015625 C 10.171875 -14.390625 9.484375 -14.578125 8.640625 -14.578125 L 3.546875 -14.578125 L 3.546875 -8.828125 Z M 9.546875 -1.515625 C 10.460938 -1.515625 11.1875 -1.753906 11.71875 -2.234375 C 12.25 -2.722656 12.515625 -3.363281 12.515625 -4.15625 L 12.515625 -5.265625 C 12.515625 -5.910156 12.28125 -6.425781 11.8125 -6.8125 C 11.351562 -7.207031 10.75 -7.40625 10 -7.40625 L 3.546875 -7.40625 L 3.546875 -1.515625 Z M 9.546875 -1.515625 "/></g></g></g></svg>